<svg width="685" height="37" viewBox="0 0 685 37" fill="none" xmlns="http://www.w3.org/2000/svg">
    <path d="M29.8538 17.68C33.0938 19.32 35.0538 21.68 35.0538 25.52C35.0538 30.92 31.2538 35 20.7338 35H0.49375V1.4H21.2938C31.4538 1.4 34.1738 5.88 34.1738 10.32C34.1738 14.12 32.2137 15.76 29.8538 17.04V17.68ZM20.1337 9.88H11.5738V14.92H20.1337C22.7338 14.92 23.5737 13.64 23.5737 12.44C23.5737 11.16 22.7338 9.88 20.1337 9.88ZM20.3738 26.52C22.9738 26.52 23.8537 24.92 23.8537 23.68C23.8537 22.4 22.9738 20.96 20.3738 20.96H11.5738V26.52H20.3738ZM72.3512 35H61.4713L56.9113 26.32H48.5113V35H37.4313V1.4H56.6713C65.9913 1.4 71.2313 5.4 71.2313 14.24C71.2313 18.76 69.1912 21.96 66.3512 23.96L72.3512 35ZM48.5113 10.6V18.04H55.9113C58.7113 18.04 60.1512 16.68 60.1512 14.32C60.1512 11.96 58.7113 10.6 55.9113 10.6H48.5113ZM92.0119 36.12C80.4519 36.12 72.9719 28.96 72.9719 18.2C72.9719 7.44 80.4519 0.279999 92.0119 0.279999C103.572 0.279999 111.052 7.44 111.052 18.2C111.052 28.96 103.572 36.12 92.0119 36.12ZM92.0119 26.56C96.4119 26.56 100.052 23.52 100.052 18.2C100.052 12.88 96.4119 9.84 92.0119 9.84C87.6119 9.84 83.9719 12.88 83.9719 18.2C83.9719 23.52 87.6119 26.56 92.0119 26.56ZM117.179 35L110.659 1.4H121.899L125.499 23.16H126.459L131.259 1.4H140.059L144.859 23.16H145.819L149.419 1.4H160.659L154.139 35H139.179L136.139 18.84H135.179L132.139 35H117.179ZM177.65 36.12C166.05 36.08 160.57 32.48 160.85 23.76H170.81C170.93 26.04 172.85 27.44 177.65 27.48C181.89 27.52 183.85 26.32 183.85 24.76C183.85 23.68 183.25 22.56 179.97 22.08L175.65 21.4C169.29 20.36 161.65 19.6 161.65 11C161.65 4.36 167.05 0.279999 177.73 0.279999C187.37 0.279999 194.09 2.96 193.89 12.56H184.01C183.61 10.32 181.73 8.92 177.49 8.92C173.81 8.92 172.29 10.04 172.29 11.56C172.29 12.52 172.89 13.68 175.45 14.08L179.01 14.68C185.69 15.8 194.85 16 194.85 25.2C194.85 32.52 189.17 36.16 177.65 36.12ZM196.947 35V1.4H227.227V10.28H208.027V14.56H226.507V21.84H208.027V26.12H227.227V35H196.947ZM269.807 17.68C273.047 19.32 275.007 21.68 275.007 25.52C275.007 30.92 271.207 35 260.687 35H240.447V1.4H261.247C271.407 1.4 274.127 5.88 274.127 10.32C274.127 14.12 272.167 15.76 269.807 17.04V17.68ZM260.087 9.88H251.527V14.92H260.087C262.687 14.92 263.527 13.64 263.527 12.44C263.527 11.16 262.687 9.88 260.087 9.88ZM260.327 26.52C262.927 26.52 263.807 24.92 263.807 23.68C263.807 22.4 262.927 20.96 260.327 20.96H251.527V26.52H260.327ZM311.732 1.4L297.972 24.56V35H286.892V24.52L273.172 1.4H284.812L292.012 14.04H292.892L300.092 1.4H311.732ZM340.014 1.4C353.694 1.4 358.494 8.52 358.494 18.2C358.494 27.84 353.694 35 340.014 35H323.134V1.4H340.014ZM340.014 25.72C344.334 25.72 347.374 23.56 347.374 18.2C347.374 12.8 344.334 10.68 340.014 10.68H334.254V25.72H340.014ZM395.836 35H384.956L380.396 26.32H371.996V35H360.916V1.4H380.156C389.476 1.4 394.716 5.4 394.716 14.24C394.716 18.76 392.676 21.96 389.836 23.96L395.836 35ZM371.996 10.6V18.04H379.396C382.196 18.04 383.636 16.68 383.636 14.32C383.636 11.96 382.196 10.6 379.396 10.6H371.996ZM398.041 35V1.4H428.321V10.28H409.121V14.56H427.601V21.84H409.121V26.12H428.321V35H398.041ZM447.134 36.12C435.534 36.08 430.054 32.48 430.334 23.76H440.294C440.414 26.04 442.334 27.44 447.134 27.48C451.374 27.52 453.334 26.32 453.334 24.76C453.334 23.68 452.734 22.56 449.454 22.08L445.134 21.4C438.774 20.36 431.134 19.6 431.134 11C431.134 4.36 436.534 0.279999 447.214 0.279999C456.854 0.279999 463.574 2.96 463.374 12.56H453.494C453.094 10.32 451.214 8.92 446.974 8.92C443.294 8.92 441.774 10.04 441.774 11.56C441.774 12.52 442.374 13.68 444.934 14.08L448.494 14.68C455.174 15.8 464.334 16 464.334 25.2C464.334 32.52 458.654 36.16 447.134 36.12ZM482.853 36.12C471.253 36.08 465.773 32.48 466.053 23.76H476.013C476.133 26.04 478.053 27.44 482.853 27.48C487.093 27.52 489.053 26.32 489.053 24.76C489.053 23.68 488.453 22.56 485.173 22.08L480.853 21.4C474.493 20.36 466.853 19.6 466.853 11C466.853 4.36 472.253 0.279999 482.933 0.279999C492.573 0.279999 499.293 2.96 499.093 12.56H489.213C488.813 10.32 486.933 8.92 482.693 8.92C479.013 8.92 477.493 10.04 477.493 11.56C477.493 12.52 478.093 13.68 480.653 14.08L484.213 14.68C490.893 15.8 500.053 16 500.053 25.2C500.053 32.52 494.373 36.16 482.853 36.12ZM528.556 36.12C516.956 36.08 511.476 32.48 511.756 23.76H521.716C521.836 26.04 523.756 27.44 528.556 27.48C532.796 27.52 534.756 26.32 534.756 24.76C534.756 23.68 534.156 22.56 530.876 22.08L526.556 21.4C520.196 20.36 512.556 19.6 512.556 11C512.556 4.36 517.956 0.279999 528.636 0.279999C538.276 0.279999 544.996 2.96 544.796 12.56H534.916C534.516 10.32 532.636 8.92 528.396 8.92C524.716 8.92 523.196 10.04 523.196 11.56C523.196 12.52 523.796 13.68 526.356 14.08L529.916 14.68C536.596 15.8 545.756 16 545.756 25.2C545.756 32.52 540.076 36.16 528.556 36.12ZM581.674 1.4V10.64H569.594V35H558.514V10.64H546.434V1.4H581.674ZM621.013 1.4L607.253 24.56V35H596.173V24.52L582.453 1.4H594.093L601.293 14.04H602.173L609.373 1.4H621.013ZM622.431 35V1.4H633.511V25.76H651.431V35H622.431ZM654.213 35V1.4H684.493V10.28H665.293V14.56H683.773V21.84H665.293V26.12H684.493V35H654.213Z" fill="black"/>
</svg>
